<?xml version="1.0" encoding="UTF-8"?>
<svg xmlns="http://www.w3.org/2000/svg" id="Layer_3" data-name="Layer 3" viewBox="0 0 64 64" width="512" height="512"><path d="M4,22h8.413a2,2,0,0,1,1.947,1.546l5.558,23.817A6,6,0,0,0,25.761,52H60a2,2,0,0,0,2-2h0a2,2,0,0,0-2-2H25.587a2,2,0,0,1-1.948-1.546L17.721,21.091A4,4,0,0,0,13.825,18H4a2,2,0,0,0-2,2H2A2,2,0,0,0,4,22Z" style="fill:#3b5892"/><circle cx="32" cy="57" r="5" style="fill:#b5b5b5"/><circle cx="52" cy="57" r="5" style="fill:#b5b5b5"/><circle cx="32" cy="57" r="2" style="fill:#939393"/><circle cx="52" cy="57" r="2" style="fill:#939393"/><path d="M62.782,21.375A1,1,0,0,0,62,21H22a1,1,0,0,0-.975,1.222l5,22A1,1,0,0,0,27,45H57a1,1,0,0,0,.975-.778l5-22A1,1,0,0,0,62.782,21.375ZM49.082,36H43V30h6.9Zm2.836-6h7.238l-1.363,6H51.1ZM24.844,30h7.238l.818,6H26.207ZM34.1,30H41v6H34.918Zm-.273-2-.682-5H41v5ZM41,38v5H35.873l-.682-5Zm2,0h5.809l-.682,5H43Zm0-10V23h7.855l-.682,5ZM31.127,23l.682,5h-7.42l-1.137-5ZM26.662,38h6.511l.682,5H27.8ZM56.2,43H50.145l.682-5h6.511Zm3.409-15h-7.42l.682-5h7.874Z" style="fill:#5e87ca"/><path d="M53,13A11,11,0,1,0,39.9,23.794L42,28l2.1-4.206A11,11,0,0,0,53,13Z" style="fill:#f29b99"/><path d="M42,19l4.332-3.61A4.637,4.637,0,0,0,48,11.828h0A2.828,2.828,0,0,0,45.172,9h0a2.828,2.828,0,0,0-2,.828L42,11,40.828,9.828a2.828,2.828,0,0,0-2-.828h0A2.828,2.828,0,0,0,36,11.828h0a4.637,4.637,0,0,0,1.668,3.562Z" style="fill:#f8ced7"/><path d="M60,47H25.587a1,1,0,0,1-.974-.773L18.7,20.864A4.979,4.979,0,0,0,13.826,17H4a3,3,0,0,0,0,6h8.413a1,1,0,0,1,.974.772l5.557,23.819A6.972,6.972,0,0,0,25.761,53H27.54a6,6,0,1,0,8.92,0H47.54a6,6,0,1,0,8.92,0H60a3,3,0,0,0,0-6ZM36,57a4,4,0,1,1-4-4A4,4,0,0,1,36,57Zm20,0a4,4,0,1,1-4-4A4,4,0,0,1,56,57Zm4-6H25.761a4.979,4.979,0,0,1-4.869-3.864L15.334,23.318A2.987,2.987,0,0,0,12.413,21H4a1,1,0,0,1,0-2h9.826a2.989,2.989,0,0,1,2.922,2.318l5.918,25.364A2.987,2.987,0,0,0,25.587,49H60a1,1,0,0,1,0,2Z"/><path d="M27,45H57a1,1,0,0,0,.975-.778l5-22A1,1,0,0,0,62,21H50.928a12,12,0,1,0-17.855,0H22a1,1,0,0,0-.975,1.222l5,22A1,1,0,0,0,27,45ZM39.217,24.67,40.882,28H33.827l-.681-5h2.235A11.9,11.9,0,0,0,39.217,24.67ZM48.62,23h2.235l-.682,5H43.118l1.665-3.33A11.913,11.913,0,0,0,48.62,23Zm.462,13H43V30h6.9Zm2.836-6h7.238l-1.363,6H51.1ZM43,38h5.809l-.682,5H43Zm-2,5H35.873l-.682-5H41Zm0-13v6H34.918L34.1,30Zm-8.1,6H26.207l-1.363-6h7.238Zm-6.238,2h6.511l.682,5H27.8ZM56.2,43H50.145l.682-5h6.511Zm3.409-15h-7.42l.682-5h7.874ZM42,3a10,10,0,0,1,1.913,19.812,1,1,0,0,0-.7.535L42,25.764l-1.208-2.417a1,1,0,0,0-.7-.535A10,10,0,0,1,42,3ZM31.127,23l.682,5h-7.42l-1.136-5Z"/><circle cx="32" cy="57" r="2"/><circle cx="52" cy="57" r="2"/><path d="M37.028,16.158l4.332,3.61a1,1,0,0,0,1.28,0l4.332-3.61A5.62,5.62,0,0,0,49,11.829a3.828,3.828,0,0,0-6.536-2.707L42,9.586l-.464-.464A3.828,3.828,0,0,0,35,11.829,5.62,5.62,0,0,0,37.028,16.158ZM38.829,10a1.816,1.816,0,0,1,1.293.536l1.171,1.171a1,1,0,0,0,1.414,0l1.171-1.171A1.829,1.829,0,0,1,47,11.829a3.625,3.625,0,0,1-1.309,2.793L42,17.7l-3.691-3.076A3.625,3.625,0,0,1,37,11.829,1.83,1.83,0,0,1,38.829,10Z"/></svg>
